<svg version="1.1" id="Layer_1" xmlns="http://www.w3.org/2000/svg" xmlns:xlink="http://www.w3.org/1999/xlink" x="0px" y="0px"
	 width="100%" viewBox="0 0 1351 307" enable-background="new 0 0 1351 307" xml:space="preserve">
<path fill="#FFFFFF" opacity="1.000000" stroke="none" 
	d="
M982.000000,308.000000 
	C654.666687,308.000000 327.833405,308.000000 1.000088,308.000000 
	C1.000058,205.666718 1.000058,103.333435 1.000029,1.000115 
	C451.333221,1.000077 901.666443,1.000077 1351.999756,1.000038 
	C1351.999756,103.333214 1351.999756,205.666428 1351.999878,307.999817 
	C1228.833374,308.000000 1105.666626,308.000000 982.000000,308.000000 
M265.844543,167.463486 
	C265.894653,150.312241 265.945496,133.160995 265.991180,116.009735 
	C265.992523,115.511505 265.981903,115.006599 265.905975,114.515770 
	C262.574585,92.982971 253.639053,74.575119 236.782974,60.159557 
	C222.183792,47.674141 205.206085,40.614243 186.420380,40.244896 
	C146.133545,39.452808 105.818138,39.762669 65.519081,40.130444 
	C51.230972,40.260834 40.860779,51.251595 40.932545,65.435509 
	C41.128860,104.238083 40.966637,143.042358 41.043087,181.845779 
	C41.052513,186.631668 41.338768,191.461456 42.027500,196.193665 
	C44.653553,214.237030 52.943592,229.626541 65.862152,242.162827 
	C81.317749,257.161041 100.350044,265.077820 121.828445,265.852051 
	C139.287018,266.481354 156.790451,265.865753 175.166962,265.791626 
	C189.193665,265.472290 203.222824,266.589111 217.152435,263.107666 
	C242.452271,256.784424 265.271301,229.388046 265.803833,203.398560 
	C266.042511,191.750137 265.708649,180.089981 265.844543,167.463486 
M518.000000,137.500000 
	C517.999817,128.002441 518.072449,118.504150 517.978943,109.007507 
	C517.886169,99.591331 514.157043,94.962364 506.180054,94.038414 
	C499.750214,93.293663 494.786896,97.570641 492.608582,105.715958 
	C492.287354,106.917160 491.907410,108.102661 491.333038,110.044533 
	C481.417450,98.039101 468.965942,94.432053 454.232758,94.770447 
	C438.965027,95.121124 423.097473,106.621460 417.743347,121.122177 
	C412.449890,135.458588 411.635345,150.002426 415.198486,164.587921 
	C422.054413,192.652390 439.360168,203.861237 466.596588,200.732666 
	C471.008667,200.225876 475.454285,197.966705 479.356842,195.634659 
	C483.378662,193.231384 486.755707,189.749146 491.621277,185.746567 
	C490.662048,194.125137 490.151581,201.317230 488.880981,208.372452 
	C488.353394,211.302109 486.732849,214.430481 484.700073,216.627029 
	C474.305756,227.858521 450.288696,224.888550 440.176544,211.518539 
	C438.662415,209.516556 436.413849,207.354965 434.125153,206.780289 
	C425.205658,204.540695 418.477356,206.013596 417.312195,213.665894 
	C416.716766,217.576218 417.950623,222.305496 419.796021,225.932861 
	C423.466583,233.147873 430.758209,236.141373 437.873779,239.122070 
	C451.287476,244.741043 465.408936,243.359940 479.238281,242.684036 
	C488.440369,242.234299 497.448700,239.118576 504.758240,232.739563 
	C514.391602,224.332611 517.513184,212.927078 517.841064,200.979721 
	C518.412292,180.167374 518.000000,159.328033 518.000000,137.500000 
M1131.553101,198.039398 
	C1138.377686,203.034912 1146.215942,203.053223 1154.220825,203.076263 
	C1168.783325,203.118179 1180.185059,196.812714 1187.807251,185.042496 
	C1199.137695,167.545975 1200.658936,148.238022 1195.094482,128.326340 
	C1191.290527,114.714111 1183.761230,104.138535 1170.471558,98.117027 
	C1163.109375,94.781273 1155.434448,94.809265 1147.685059,95.019409 
	C1139.854370,95.231750 1132.980713,97.967194 1127.204102,103.307823 
	C1124.618652,105.698174 1122.087402,108.147049 1118.991089,111.081535 
	C1118.991089,109.275055 1119.103882,108.154449 1118.973022,107.063057 
	C1118.041504,99.293419 1112.375854,93.768433 1105.642334,94.002472 
	C1098.394653,94.254402 1093.040405,99.297813 1093.030151,106.327843 
	C1092.969727,147.805649 1092.887939,189.284439 1093.195435,230.760071 
	C1093.222778,234.440460 1094.984375,239.328293 1097.677856,241.527512 
	C1104.334229,246.962326 1115.937988,242.277847 1117.875488,233.967087 
	C1118.614380,230.797348 1118.918945,227.465424 1118.951416,224.202728 
	C1119.072998,212.004181 1119.000000,199.803680 1119.000000,187.274719 
	C1123.373657,191.015671 1127.189819,194.279678 1131.553101,198.039398 
M347.043610,201.853287 
	C355.159332,197.827835 363.275024,193.802399 371.488678,189.728378 
	C372.587097,191.213684 373.915527,193.095978 375.335724,194.906281 
	C376.765076,196.728226 378.134033,198.637024 379.796783,200.228409 
	C383.642822,203.909302 390.870300,204.156570 396.030273,200.977448 
	C400.044434,198.504257 401.667450,193.821075 400.214325,188.334518 
	C397.835999,179.354507 395.707123,170.444992 395.862091,160.959366 
	C396.076141,147.851807 396.074463,134.653183 394.758820,121.635704 
	C393.697845,111.138092 388.531281,102.466652 377.530609,98.698830 
	C360.642059,92.914375 343.416199,93.286026 326.566376,97.578354 
	C314.856903,100.561226 304.965027,107.101990 302.542999,120.730011 
	C301.514618,126.516258 303.430634,131.531448 308.268219,133.603973 
	C314.606384,136.319382 319.387909,135.009827 323.114502,129.846603 
	C325.721497,126.234650 328.250763,122.436646 331.474487,119.428848 
	C336.917664,114.350227 344.031982,115.286346 350.838623,114.912674 
	C363.836914,114.199104 368.079224,121.074387 368.562408,134.022110 
	C352.430603,137.662506 336.133850,141.219360 319.900574,145.045349 
	C308.855652,147.648529 299.052277,157.780991 298.020355,167.144867 
	C296.338501,182.407059 301.796875,193.330261 314.049896,199.545959 
	C324.462433,204.828003 335.338257,203.293411 347.043610,201.853287 
M1291.967651,100.472473 
	C1289.268311,99.312538 1286.649536,97.440216 1283.854736,97.124023 
	C1274.869751,96.107529 1265.733276,94.561745 1256.815186,95.260895 
	C1243.463745,96.307610 1231.922607,102.024406 1223.861328,113.436119 
	C1212.211060,129.928391 1210.999512,148.058533 1215.529663,166.995483 
	C1219.070923,181.798721 1227.688843,193.140366 1241.818237,198.687012 
	C1258.545288,205.253403 1276.002441,205.530579 1292.880981,198.811371 
	C1302.158203,195.118195 1310.307495,189.355988 1313.443726,178.987244 
	C1314.557373,175.305573 1315.120850,171.127655 1311.627808,168.445358 
	C1308.106812,165.741638 1303.823242,164.648621 1299.616455,167.213745 
	C1297.393311,168.569458 1295.380249,170.325012 1293.446167,172.090363 
	C1284.905273,179.885941 1275.647339,185.145126 1263.320923,184.146255 
	C1250.643433,183.118958 1239.060181,166.481537 1242.857056,156.000412 
	C1243.748047,156.000412 1244.732056,156.000412 1245.716064,156.000412 
	C1263.713013,156.000244 1281.710083,156.026978 1299.707031,155.988983 
	C1309.166870,155.969009 1313.312378,152.837784 1315.005249,143.691223 
	C1315.666016,140.120621 1315.514771,136.232376 1314.914062,132.625275 
	C1312.569214,118.544098 1305.451294,107.659004 1291.967651,100.472473 
M664.569336,95.000000 
	C646.906921,95.269005 632.572388,101.934959 623.210083,117.333664 
	C614.193604,132.163467 612.964478,148.239380 616.824646,164.881088 
	C621.487976,184.984863 634.165344,197.442902 654.070374,201.789856 
	C661.730286,203.462677 670.018555,203.569275 677.862366,202.792389 
	C690.777344,201.513275 701.956787,196.050217 710.277039,185.533554 
	C722.357666,170.263885 724.125854,152.826981 720.606934,134.579041 
	C717.418091,118.042641 708.037170,106.058037 692.367126,99.088974 
	C683.715454,95.241241 674.757507,94.585487 664.569336,95.000000 
M974.973694,117.536018 
	C966.477234,132.232452 965.075562,147.905365 968.633240,164.226105 
	C972.227356,180.713654 981.678345,192.227524 997.222595,199.191849 
	C1006.392822,203.300354 1015.815491,203.175720 1025.348389,202.957352 
	C1042.170410,202.572021 1055.781128,195.919464 1065.109497,181.557037 
	C1074.742920,166.724854 1075.912598,150.553192 1072.330200,133.711899 
	C1068.800171,117.117065 1059.235229,105.677567 1043.610962,98.774055 
	C1033.936035,94.499237 1023.968018,94.581108 1013.966431,95.104218 
	C997.636719,95.958305 984.234985,102.543175 974.973694,117.536018 
M742.494751,166.058319 
	C741.663147,168.295547 740.407593,170.471008 740.071045,172.780350 
	C738.312073,184.851212 749.387878,194.886581 759.464783,198.977386 
	C773.583435,204.708908 788.333679,204.247025 802.808472,201.724884 
	C815.639648,199.489136 825.915649,192.920151 830.329468,179.381302 
	C834.255554,167.338699 832.072754,152.690536 818.822083,146.406982 
	C812.075928,143.207947 805.060364,140.501053 797.994629,138.071823 
	C789.693237,135.217743 781.121155,133.147018 772.836792,130.249481 
	C769.175293,128.968811 765.629456,125.988602 767.236816,121.669029 
	C768.340332,118.703514 771.193237,115.460030 774.067932,114.249527 
	C784.388611,109.903610 795.625916,113.453293 802.391479,123.102936 
	C805.876221,128.073090 809.847168,130.368256 815.941345,130.091858 
	C824.366882,129.709732 828.805359,123.930794 826.397888,115.839317 
	C822.994263,104.399734 813.591492,99.646248 803.460815,97.313553 
	C794.586731,95.270195 785.148804,95.138031 775.959534,95.133522 
	C763.944946,95.127625 753.652344,99.754593 746.119324,109.437057 
	C738.784119,118.865402 739.069824,134.685837 747.972595,142.791611 
	C754.983826,149.175247 763.162048,152.233734 771.745056,154.981842 
	C780.891663,157.910385 790.105103,160.636978 799.202820,163.708160 
	C803.501404,165.159256 804.920227,168.912201 804.963562,173.126312 
	C805.003479,177.000214 802.830505,179.538971 799.444214,181.174332 
	C786.592041,187.381042 770.827637,184.893845 762.442505,170.989761 
	C756.676819,161.429214 753.002686,160.581741 742.494751,166.058319 
M920.384216,96.988533 
	C912.362122,96.325691 904.317627,94.913261 896.322571,95.153099 
	C878.652588,95.683159 864.931335,103.638901 856.321106,119.358559 
	C848.646179,133.370544 847.186340,148.563812 850.212036,163.909363 
	C853.667358,181.433441 863.367859,194.504410 880.909485,200.385590 
	C893.437256,204.585754 906.563477,204.524506 919.071899,201.603165 
	C932.045288,198.573196 943.574646,192.094055 949.149902,178.555069 
	C952.347290,170.790421 950.673950,162.213043 944.600098,159.370911 
	C938.759033,156.637772 932.985779,157.184677 927.324463,166.026031 
	C924.861267,169.872833 921.877197,173.480103 918.659851,176.731171 
	C911.260925,184.207611 895.230225,183.772980 887.289551,176.932953 
	C873.974365,165.463531 874.253845,138.368698 883.631348,125.939606 
	C891.524902,115.477180 906.587036,113.318695 916.958984,121.629478 
	C921.745850,125.465088 925.406555,130.686142 929.707275,135.154495 
	C933.531006,139.127411 940.759460,139.265976 944.882202,135.630478 
	C949.745300,131.342133 950.785156,125.083519 947.947815,118.745491 
	C942.677795,106.972870 932.514282,101.334496 920.384216,96.988533 
M546.668091,96.886543 
	C544.988342,99.830147 543.167542,102.705551 541.696289,105.749908 
	C541.081604,107.021820 541.029297,108.652534 541.027222,110.120552 
	C540.990173,136.109573 540.956970,162.098801 541.025940,188.087692 
	C541.047852,196.350479 545.418701,202.407425 551.416077,202.988754 
	C561.952820,204.010132 565.924255,201.334793 568.276489,191.413101 
	C568.766846,189.344711 568.890442,187.166245 568.981079,185.029922 
	C569.684204,168.461792 569.721619,151.836044 571.207336,135.340012 
	C572.337646,122.789078 579.537415,117.743591 591.667908,119.080482 
	C594.601196,119.403770 597.445984,120.510849 600.338257,121.230225 
	C606.834534,122.845985 611.052979,121.249718 613.941833,116.105850 
	C616.420593,111.692223 615.525879,105.353531 610.997559,101.714584 
	C607.865173,99.197449 603.994812,97.306122 600.158447,96.011505 
	C587.821899,91.848412 578.517334,94.990959 570.799316,105.347473 
	C570.159912,106.205429 569.248169,106.860397 568.379822,107.689034 
	C561.970520,94.371445 557.481079,92.023056 546.668091,96.886543 
z"/>
<path fill="#F5FFDB" opacity="1.000000" stroke="none" 
	d="
M518.000000,138.000000 
	C518.000000,159.328033 518.412292,180.167374 517.841064,200.979721 
	C517.513184,212.927078 514.391602,224.332611 504.758240,232.739563 
	C497.448700,239.118576 488.440369,242.234299 479.238281,242.684036 
	C465.408936,243.359940 451.287476,244.741043 437.873779,239.122070 
	C430.758209,236.141373 423.466583,233.147873 419.796021,225.932861 
	C417.950623,222.305496 416.716766,217.576218 417.312195,213.665894 
	C418.477356,206.013596 425.205658,204.540695 434.125153,206.780289 
	C436.413849,207.354965 438.662415,209.516556 440.176544,211.518539 
	C450.288696,224.888550 474.305756,227.858521 484.700073,216.627029 
	C486.732849,214.430481 488.353394,211.302109 488.880981,208.372452 
	C490.151581,201.317230 490.662048,194.125137 491.621277,185.746567 
	C486.755707,189.749146 483.378662,193.231384 479.356842,195.634659 
	C475.454285,197.966705 471.008667,200.225876 466.596588,200.732666 
	C439.360168,203.861237 422.054413,192.652390 415.198486,164.587921 
	C411.635345,150.002426 412.449890,135.458588 417.743347,121.122177 
	C423.097473,106.621460 438.965027,95.121124 454.232758,94.770447 
	C468.965942,94.432053 481.417450,98.039101 491.333038,110.044533 
	C491.907410,108.102661 492.287354,106.917160 492.608582,105.715958 
	C494.786896,97.570641 499.750214,93.293663 506.180054,94.038414 
	C514.157043,94.962364 517.886169,99.591331 517.978943,109.007507 
	C518.072449,118.504150 517.999817,128.002441 518.000000,138.000000 
M484.035522,171.462738 
	C490.519714,163.823746 491.530212,154.766006 491.030579,145.228683 
	C490.534149,135.753281 487.837006,127.442490 480.460571,120.875404 
	C471.321930,112.739517 454.557709,114.377380 447.779053,124.459656 
	C439.546417,136.704559 439.198761,150.060226 443.541046,163.509323 
	C444.994965,168.012482 448.255432,172.388458 451.763519,175.677811 
	C459.177521,182.629486 476.243835,182.057922 484.035522,171.462738 
z"/>
<path fill="#F5FFDB" opacity="1.000000" stroke="none" 
	d="
M174.273987,265.802216 
	C156.790451,265.865753 139.287018,266.481354 121.828445,265.852051 
	C100.350044,265.077820 81.317749,257.161041 65.862152,242.162827 
	C52.943592,229.626541 44.653553,214.237030 42.027500,196.193665 
	C41.338768,191.461456 41.052513,186.631668 41.043087,181.845779 
	C40.966637,143.042358 41.128860,104.238083 40.932545,65.435509 
	C40.860779,51.251595 51.230972,40.260834 65.519081,40.130444 
	C105.818138,39.762669 146.133545,39.452808 186.420380,40.244896 
	C205.206085,40.614243 222.183792,47.674141 236.782974,60.159557 
	C253.639053,74.575119 262.574585,92.982971 265.905975,114.515770 
	C265.981903,115.006599 265.992523,115.511505 265.991180,116.009735 
	C265.945496,133.160995 265.894653,150.312241 265.527283,167.618805 
	C264.828857,166.699402 264.238129,165.651031 264.099091,164.545837 
	C262.790161,154.141541 259.246796,144.519196 254.045822,135.472916 
	C252.418091,132.641724 250.669205,129.880219 248.983597,126.641663 
	C248.481506,121.436325 248.316147,116.608551 247.398132,111.928413 
	C244.456207,96.930237 237.195816,84.272591 225.671295,74.220154 
	C214.171234,64.189049 200.807831,58.166534 185.436508,58.075512 
	C146.796082,57.846703 108.153419,57.999428 69.511658,58.000156 
	C60.319248,58.000328 58.003883,60.298759 58.002380,69.489990 
	C57.996304,106.632721 57.886856,143.776138 58.113289,180.917496 
	C58.150177,186.968460 59.061745,193.178955 60.637657,199.027786 
	C68.379570,227.761047 95.710960,249.152954 126.441238,248.000641 
	C127.545647,248.352661 128.378281,248.562332 129.033234,249.024048 
	C140.248566,256.930634 152.442322,262.499390 166.087280,264.621552 
	C168.811493,265.045258 171.544846,265.410187 174.273987,265.802216 
z"/>
<path fill="#92C958" opacity="1.000000" stroke="none" 
	d="
M248.975769,127.086807 
	C250.669205,129.880219 252.418091,132.641724 254.045822,135.472916 
	C259.246796,144.519196 262.790161,154.141541 264.099091,164.545837 
	C264.238129,165.651031 264.828857,166.699402 265.422302,168.104645 
	C265.708649,180.089981 266.042511,191.750137 265.803833,203.398560 
	C265.271301,229.388046 242.452271,256.784424 217.152435,263.107666 
	C203.222824,266.589111 189.193665,265.472290 174.720474,265.796936 
	C171.544846,265.410187 168.811493,265.045258 166.087280,264.621552 
	C152.442322,262.499390 140.248566,256.930634 129.033234,249.024048 
	C128.378281,248.562332 127.545647,248.352661 126.304642,247.692917 
	C122.877846,244.409195 119.877907,241.519058 117.017265,238.497055 
	C102.980530,223.668716 95.584244,205.870483 95.122803,185.616348 
	C94.588089,162.145996 94.984398,138.654099 95.025986,115.171638 
	C95.029137,113.388863 95.173988,111.531418 95.680771,109.836601 
	C98.940689,98.934517 106.799011,94.425133 118.008316,94.086449 
	C130.654037,93.704361 143.326797,93.740936 155.975647,94.067078 
	C170.014465,94.429062 184.164078,94.378342 198.041641,96.206383 
	C219.235886,98.998215 235.697342,110.680283 248.975769,127.086807 
M171.499130,112.001717 
	C154.514832,112.001717 137.530518,111.999733 120.546219,112.002617 
	C113.039062,112.003891 112.014023,113.009171 112.007469,120.589790 
	C111.990471,140.238129 111.744957,159.891678 112.142014,179.532013 
	C112.279747,186.345047 113.314003,193.331665 115.181068,199.885086 
	C123.638145,229.569382 150.668991,248.766891 181.357712,248.170197 
	C188.681564,248.027786 196.040482,248.507492 203.325104,247.946243 
	C208.135437,247.575653 213.161545,246.572296 217.539047,244.616684 
	C235.643814,236.528412 246.017166,222.673508 248.094711,202.624863 
	C249.776398,186.396500 249.830292,170.392136 244.024124,154.886154 
	C237.531662,137.547318 225.586243,125.470222 208.709213,117.789795 
	C197.051376,112.484520 184.934906,111.622536 171.499130,112.001717 
z"/>
<path fill="#92C947" opacity="1.000000" stroke="none" 
	d="
M1131.279541,197.791550 
	C1127.189819,194.279678 1123.373657,191.015671 1119.000000,187.274719 
	C1119.000000,199.803680 1119.072998,212.004181 1118.951416,224.202728 
	C1118.918945,227.465424 1118.614380,230.797348 1117.875488,233.967087 
	C1115.937988,242.277847 1104.334229,246.962326 1097.677856,241.527512 
	C1094.984375,239.328293 1093.222778,234.440460 1093.195435,230.760071 
	C1092.887939,189.284439 1092.969727,147.805649 1093.030151,106.327843 
	C1093.040405,99.297813 1098.394653,94.254402 1105.642334,94.002472 
	C1112.375854,93.768433 1118.041504,99.293419 1118.973022,107.063057 
	C1119.103882,108.154449 1118.991089,109.275055 1118.991089,111.081535 
	C1122.087402,108.147049 1124.618652,105.698174 1127.204102,103.307823 
	C1132.980713,97.967194 1139.854370,95.231750 1147.685059,95.019409 
	C1155.434448,94.809265 1163.109375,94.781273 1170.471558,98.117027 
	C1183.761230,104.138535 1191.290527,114.714111 1195.094482,128.326340 
	C1200.658936,148.238022 1199.137695,167.545975 1187.807251,185.042496 
	C1180.185059,196.812714 1168.783325,203.118179 1154.220825,203.076263 
	C1146.215942,203.053223 1138.377686,203.034912 1131.279541,197.791550 
M1129.007812,174.508514 
	C1130.203613,175.365982 1131.391724,176.234650 1132.596558,177.079086 
	C1140.374390,182.530319 1148.465698,182.813339 1156.560669,178.054916 
	C1162.961304,174.292511 1166.740723,168.409012 1168.336792,161.223221 
	C1171.520142,146.893173 1171.268311,133.452255 1160.370239,121.659546 
	C1152.105591,112.716385 1133.752197,114.924225 1126.703491,125.213081 
	C1118.107788,137.759964 1117.407104,161.327667 1129.007812,174.508514 
z"/>
<path fill="#F5FFDB" opacity="1.000000" stroke="none" 
	d="
M346.632782,201.918488 
	C335.338257,203.293411 324.462433,204.828003 314.049896,199.545959 
	C301.796875,193.330261 296.338501,182.407059 298.020355,167.144867 
	C299.052277,157.780991 308.855652,147.648529 319.900574,145.045349 
	C336.133850,141.219360 352.430603,137.662506 368.562408,134.022110 
	C368.079224,121.074387 363.836914,114.199104 350.838623,114.912674 
	C344.031982,115.286346 336.917664,114.350227 331.474487,119.428848 
	C328.250763,122.436646 325.721497,126.234650 323.114502,129.846603 
	C319.387909,135.009827 314.606384,136.319382 308.268219,133.603973 
	C303.430634,131.531448 301.514618,126.516258 302.542999,120.730011 
	C304.965027,107.101990 314.856903,100.561226 326.566376,97.578354 
	C343.416199,93.286026 360.642059,92.914375 377.530609,98.698830 
	C388.531281,102.466652 393.697845,111.138092 394.758820,121.635704 
	C396.074463,134.653183 396.076141,147.851807 395.862091,160.959366 
	C395.707123,170.444992 397.835999,179.354507 400.214325,188.334518 
	C401.667450,193.821075 400.044434,198.504257 396.030273,200.977448 
	C390.870300,204.156570 383.642822,203.909302 379.796783,200.228409 
	C378.134033,198.637024 376.765076,196.728226 375.335724,194.906281 
	C373.915527,193.095978 372.587097,191.213684 371.488678,189.728378 
	C363.275024,193.802399 355.159332,197.827835 346.632782,201.918488 
M352.468353,155.001968 
	C346.687286,156.362610 340.816895,157.431824 335.150879,159.167999 
	C329.766602,160.817841 325.639282,164.419022 325.223602,170.350647 
	C324.892273,175.079910 327.257324,179.456833 331.472595,181.464523 
	C335.022461,183.155258 339.361450,183.948196 343.328033,183.875641 
	C362.236572,183.529846 371.193604,169.322083 368.174072,151.254089 
	C363.208557,152.490631 358.260834,153.722733 352.468353,155.001968 
z"/>
<path fill="#92C947" opacity="1.000000" stroke="none" 
	d="
M1292.277100,100.686951 
	C1305.451294,107.659004 1312.569214,118.544098 1314.914062,132.625275 
	C1315.514771,136.232376 1315.666016,140.120621 1315.005249,143.691223 
	C1313.312378,152.837784 1309.166870,155.969009 1299.707031,155.988983 
	C1281.710083,156.026978 1263.713013,156.000244 1245.716064,156.000412 
	C1244.732056,156.000412 1243.748047,156.000412 1242.857056,156.000412 
	C1239.060181,166.481537 1250.643433,183.118958 1263.320923,184.146255 
	C1275.647339,185.145126 1284.905273,179.885941 1293.446167,172.090363 
	C1295.380249,170.325012 1297.393311,168.569458 1299.616455,167.213745 
	C1303.823242,164.648621 1308.106812,165.741638 1311.627808,168.445358 
	C1315.120850,171.127655 1314.557373,175.305573 1313.443726,178.987244 
	C1310.307495,189.355988 1302.158203,195.118195 1292.880981,198.811371 
	C1276.002441,205.530579 1258.545288,205.253403 1241.818237,198.687012 
	C1227.688843,193.140366 1219.070923,181.798721 1215.529663,166.995483 
	C1210.999512,148.058533 1212.211060,129.928391 1223.861328,113.436119 
	C1231.922607,102.024406 1243.463745,96.307610 1256.815186,95.260895 
	C1265.733276,94.561745 1274.869751,96.107529 1283.854736,97.124023 
	C1286.649536,97.440216 1289.268311,99.312538 1292.277100,100.686951 
M1251.050781,119.438408 
	C1245.421387,125.421638 1241.974121,132.254837 1242.138306,140.658234 
	C1258.099976,140.658234 1273.442139,140.658234 1288.805420,140.658234 
	C1286.677979,113.871880 1265.669067,110.144600 1251.050781,119.438408 
z"/>
<path fill="#F5FFDB" opacity="1.000000" stroke="none" 
	d="
M665.058960,95.000000 
	C674.757507,94.585487 683.715454,95.241241 692.367126,99.088974 
	C708.037170,106.058037 717.418091,118.042641 720.606934,134.579041 
	C724.125854,152.826981 722.357666,170.263885 710.277039,185.533554 
	C701.956787,196.050217 690.777344,201.513275 677.862366,202.792389 
	C670.018555,203.569275 661.730286,203.462677 654.070374,201.789856 
	C634.165344,197.442902 621.487976,184.984863 616.824646,164.881088 
	C612.964478,148.239380 614.193604,132.163467 623.210083,117.333664 
	C632.572388,101.934959 646.906921,95.269005 665.058960,95.000000 
M654.580078,119.957588 
	C652.052002,122.972519 648.842590,125.644150 647.119141,129.064529 
	C641.121460,140.967789 641.427124,153.558472 645.602966,165.792297 
	C648.766846,175.061462 656.865112,183.504532 671.653442,182.084976 
	C680.265503,181.258301 688.935181,174.269699 692.063416,164.060455 
	C694.627991,155.690796 694.463562,147.177719 693.151978,138.512222 
	C690.291077,119.610245 671.926819,109.886589 654.580078,119.957588 
z"/>
<path fill="#92C947" opacity="1.000000" stroke="none" 
	d="
M975.222839,117.263565 
	C984.234985,102.543175 997.636719,95.958305 1013.966431,95.104218 
	C1023.968018,94.581108 1033.936035,94.499237 1043.610962,98.774055 
	C1059.235229,105.677567 1068.800171,117.117065 1072.330200,133.711899 
	C1075.912598,150.553192 1074.742920,166.724854 1065.109497,181.557037 
	C1055.781128,195.919464 1042.170410,202.572021 1025.348389,202.957352 
	C1015.815491,203.175720 1006.392822,203.300354 997.222595,199.191849 
	C981.678345,192.227524 972.227356,180.713654 968.633240,164.226105 
	C965.075562,147.905365 966.477234,132.232452 975.222839,117.263565 
M1016.880127,116.001114 
	C1008.609558,117.123650 1002.766235,121.657295 999.026428,128.957611 
	C993.548157,139.651718 994.098389,150.995682 996.254150,162.258133 
	C998.015808,171.461700 1007.759888,181.163330 1015.048645,181.993423 
	C1028.686768,183.546600 1037.600708,178.652206 1043.088379,166.697906 
	C1046.675293,158.884048 1046.576172,150.534744 1045.860596,142.377823 
	C1044.548462,127.415886 1034.922607,114.073486 1016.880127,116.001114 
z"/>
<path fill="#92C947" opacity="1.000000" stroke="none" 
	d="
M742.776367,165.775574 
	C753.002686,160.581741 756.676819,161.429214 762.442505,170.989761 
	C770.827637,184.893845 786.592041,187.381042 799.444214,181.174332 
	C802.830505,179.538971 805.003479,177.000214 804.963562,173.126312 
	C804.920227,168.912201 803.501404,165.159256 799.202820,163.708160 
	C790.105103,160.636978 780.891663,157.910385 771.745056,154.981842 
	C763.162048,152.233734 754.983826,149.175247 747.972595,142.791611 
	C739.069824,134.685837 738.784119,118.865402 746.119324,109.437057 
	C753.652344,99.754593 763.944946,95.127625 775.959534,95.133522 
	C785.148804,95.138031 794.586731,95.270195 803.460815,97.313553 
	C813.591492,99.646248 822.994263,104.399734 826.397888,115.839317 
	C828.805359,123.930794 824.366882,129.709732 815.941345,130.091858 
	C809.847168,130.368256 805.876221,128.073090 802.391479,123.102936 
	C795.625916,113.453293 784.388611,109.903610 774.067932,114.249527 
	C771.193237,115.460030 768.340332,118.703514 767.236816,121.669029 
	C765.629456,125.988602 769.175293,128.968811 772.836792,130.249481 
	C781.121155,133.147018 789.693237,135.217743 797.994629,138.071823 
	C805.060364,140.501053 812.075928,143.207947 818.822083,146.406982 
	C832.072754,152.690536 834.255554,167.338699 830.329468,179.381302 
	C825.915649,192.920151 815.639648,199.489136 802.808472,201.724884 
	C788.333679,204.247025 773.583435,204.708908 759.464783,198.977386 
	C749.387878,194.886581 738.312073,184.851212 740.071045,172.780350 
	C740.407593,170.471008 741.663147,168.295547 742.776367,165.775574 
z"/>
<path fill="#92C947" opacity="1.000000" stroke="none" 
	d="
M920.789429,97.034714 
	C932.514282,101.334496 942.677795,106.972870 947.947815,118.745491 
	C950.785156,125.083519 949.745300,131.342133 944.882202,135.630478 
	C940.759460,139.265976 933.531006,139.127411 929.707275,135.154495 
	C925.406555,130.686142 921.745850,125.465088 916.958984,121.629478 
	C906.587036,113.318695 891.524902,115.477180 883.631348,125.939606 
	C874.253845,138.368698 873.974365,165.463531 887.289551,176.932953 
	C895.230225,183.772980 911.260925,184.207611 918.659851,176.731171 
	C921.877197,173.480103 924.861267,169.872833 927.324463,166.026031 
	C932.985779,157.184677 938.759033,156.637772 944.600098,159.370911 
	C950.673950,162.213043 952.347290,170.790421 949.149902,178.555069 
	C943.574646,192.094055 932.045288,198.573196 919.071899,201.603165 
	C906.563477,204.524506 893.437256,204.585754 880.909485,200.385590 
	C863.367859,194.504410 853.667358,181.433441 850.212036,163.909363 
	C847.186340,148.563812 848.646179,133.370544 856.321106,119.358559 
	C864.931335,103.638901 878.652588,95.683159 896.322571,95.153099 
	C904.317627,94.913261 912.362122,96.325691 920.789429,97.034714 
z"/>
<path fill="#F5FFDB" opacity="1.000000" stroke="none" 
	d="
M546.978088,96.643059 
	C557.481079,92.023056 561.970520,94.371445 568.379822,107.689034 
	C569.248169,106.860397 570.159912,106.205429 570.799316,105.347473 
	C578.517334,94.990959 587.821899,91.848412 600.158447,96.011505 
	C603.994812,97.306122 607.865173,99.197449 610.997559,101.714584 
	C615.525879,105.353531 616.420593,111.692223 613.941833,116.105850 
	C611.052979,121.249718 606.834534,122.845985 600.338257,121.230225 
	C597.445984,120.510849 594.601196,119.403770 591.667908,119.080482 
	C579.537415,117.743591 572.337646,122.789078 571.207336,135.340012 
	C569.721619,151.836044 569.684204,168.461792 568.981079,185.029922 
	C568.890442,187.166245 568.766846,189.344711 568.276489,191.413101 
	C565.924255,201.334793 561.952820,204.010132 551.416077,202.988754 
	C545.418701,202.407425 541.047852,196.350479 541.025940,188.087692 
	C540.956970,162.098801 540.990173,136.109573 541.027222,110.120552 
	C541.029297,108.652534 541.081604,107.021820 541.696289,105.749908 
	C543.167542,102.705551 544.988342,99.830147 546.978088,96.643059 
z"/>
<path fill="#FFFFFF" opacity="1.000000" stroke="none" 
	d="
M483.781250,171.717957 
	C476.243835,182.057922 459.177521,182.629486 451.763519,175.677811 
	C448.255432,172.388458 444.994965,168.012482 443.541046,163.509323 
	C439.198761,150.060226 439.546417,136.704559 447.779053,124.459656 
	C454.557709,114.377380 471.321930,112.739517 480.460571,120.875404 
	C487.837006,127.442490 490.534149,135.753281 491.030579,145.228683 
	C491.530212,154.766006 490.519714,163.823746 483.781250,171.717957 
z"/>
<path fill="#FFFFFF" opacity="1.000000" stroke="none" 
	d="
M248.983582,126.641663 
	C235.697342,110.680283 219.235886,98.998215 198.041641,96.206383 
	C184.164078,94.378342 170.014465,94.429062 155.975647,94.067078 
	C143.326797,93.740936 130.654037,93.704361 118.008316,94.086449 
	C106.799011,94.425133 98.940689,98.934517 95.680771,109.836601 
	C95.173988,111.531418 95.029137,113.388863 95.025986,115.171638 
	C94.984398,138.654099 94.588089,162.145996 95.122803,185.616348 
	C95.584244,205.870483 102.980530,223.668716 117.017265,238.497055 
	C119.877907,241.519058 122.877846,244.409195 125.950172,247.667877 
	C95.710960,249.152954 68.379570,227.761047 60.637657,199.027786 
	C59.061745,193.178955 58.150177,186.968460 58.113289,180.917496 
	C57.886856,143.776138 57.996304,106.632721 58.002380,69.489990 
	C58.003883,60.298759 60.319248,58.000328 69.511658,58.000156 
	C108.153419,57.999428 146.796082,57.846703 185.436508,58.075512 
	C200.807831,58.166534 214.171234,64.189049 225.671295,74.220154 
	C237.195816,84.272591 244.456207,96.930237 247.398132,111.928413 
	C248.316147,116.608551 248.481506,121.436325 248.983582,126.641663 
z"/>
<path fill="#FFFFFF" opacity="1.000000" stroke="none" 
	d="
M171.998779,112.001717 
	C184.934906,111.622536 197.051376,112.484520 208.709213,117.789795 
	C225.586243,125.470222 237.531662,137.547318 244.024124,154.886154 
	C249.830292,170.392136 249.776398,186.396500 248.094711,202.624863 
	C246.017166,222.673508 235.643814,236.528412 217.539047,244.616684 
	C213.161545,246.572296 208.135437,247.575653 203.325104,247.946243 
	C196.040482,248.507492 188.681564,248.027786 181.357712,248.170197 
	C150.668991,248.766891 123.638145,229.569382 115.181068,199.885086 
	C113.314003,193.331665 112.279747,186.345047 112.142014,179.532013 
	C111.744957,159.891678 111.990471,140.238129 112.007469,120.589790 
	C112.014023,113.009171 113.039062,112.003891 120.546219,112.002617 
	C137.530518,111.999733 154.514832,112.001717 171.998779,112.001717 
z"/>
<path fill="#FFFFFF" opacity="1.000000" stroke="none" 
	d="
M1128.747803,174.248871 
	C1117.407104,161.327667 1118.107788,137.759964 1126.703491,125.213081 
	C1133.752197,114.924225 1152.105591,112.716385 1160.370239,121.659546 
	C1171.268311,133.452255 1171.520142,146.893173 1168.336792,161.223221 
	C1166.740723,168.409012 1162.961304,174.292511 1156.560669,178.054916 
	C1148.465698,182.813339 1140.374390,182.530319 1132.596558,177.079086 
	C1131.391724,176.234650 1130.203613,175.365982 1128.747803,174.248871 
z"/>
<path fill="#FFFFFF" opacity="1.000000" stroke="none" 
	d="
M352.890747,154.978394 
	C358.260834,153.722733 363.208557,152.490631 368.174072,151.254089 
	C371.193604,169.322083 362.236572,183.529846 343.328033,183.875641 
	C339.361450,183.948196 335.022461,183.155258 331.472595,181.464523 
	C327.257324,179.456833 324.892273,175.079910 325.223602,170.350647 
	C325.639282,164.419022 329.766602,160.817841 335.150879,159.167999 
	C340.816895,157.431824 346.687286,156.362610 352.890747,154.978394 
z"/>
<path fill="#FFFFFF" opacity="1.000000" stroke="none" 
	d="
M1251.322998,119.186043 
	C1265.669067,110.144600 1286.677979,113.871880 1288.805420,140.658234 
	C1273.442139,140.658234 1258.099976,140.658234 1242.138306,140.658234 
	C1241.974121,132.254837 1245.421387,125.421638 1251.322998,119.186043 
z"/>
<path fill="#FFFFFF" opacity="1.000000" stroke="none" 
	d="
M654.864075,119.724228 
	C671.926819,109.886589 690.291077,119.610245 693.151978,138.512222 
	C694.463562,147.177719 694.627991,155.690796 692.063416,164.060455 
	C688.935181,174.269699 680.265503,181.258301 671.653442,182.084976 
	C656.865112,183.504532 648.766846,175.061462 645.602966,165.792297 
	C641.427124,153.558472 641.121460,140.967789 647.119141,129.064529 
	C648.842590,125.644150 652.052002,122.972519 654.864075,119.724228 
z"/>
<path fill="#FFFFFF" opacity="1.000000" stroke="none" 
	d="
M1017.330139,116.000626 
	C1034.922607,114.073486 1044.548462,127.415886 1045.860596,142.377823 
	C1046.576172,150.534744 1046.675293,158.884048 1043.088379,166.697906 
	C1037.600708,178.652206 1028.686768,183.546600 1015.048645,181.993423 
	C1007.759888,181.163330 998.015808,171.461700 996.254150,162.258133 
	C994.098389,150.995682 993.548157,139.651718 999.026428,128.957611 
	C1002.766235,121.657295 1008.609558,117.123650 1017.330139,116.000626 
z"/>
</svg>